<svg width="95" height="16" viewBox="0 0 95 16" fill="none" xmlns="http://www.w3.org/2000/svg">
<g clip-path="url(#clip0_73_1097)">
<path d="M8 0C10.1217 0 12.1566 0.842855 13.6569 2.34315C15.1571 3.84344 16 5.87827 16 8C16 10.1217 15.1571 12.1566 13.6569 13.6569C12.1566 15.1571 10.1217 16 8 16C5.87827 16 3.84344 15.1571 2.34315 13.6569C0.842855 12.1566 0 10.1217 0 8C0 5.87827 0.842855 3.84344 2.34315 2.34315C3.84344 0.842855 5.87827 0 8 0V0ZM4.5 7.5C4.36739 7.5 4.24021 7.55268 4.14645 7.64645C4.05268 7.74021 4 7.86739 4 8C4 8.13261 4.05268 8.25979 4.14645 8.35355C4.24021 8.44732 4.36739 8.5 4.5 8.5H10.293L8.146 10.646C8.09951 10.6925 8.06264 10.7477 8.03748 10.8084C8.01232 10.8692 7.99937 10.9343 7.99937 11C7.99937 11.0657 8.01232 11.1308 8.03748 11.1916C8.06264 11.2523 8.09951 11.3075 8.146 11.354C8.19249 11.4005 8.24768 11.4374 8.30842 11.4625C8.36916 11.4877 8.43426 11.5006 8.5 11.5006C8.56574 11.5006 8.63084 11.4877 8.69158 11.4625C8.75232 11.4374 8.80751 11.4005 8.854 11.354L11.854 8.354C11.9006 8.30755 11.9375 8.25238 11.9627 8.19163C11.9879 8.13089 12.0009 8.06577 12.0009 8C12.0009 7.93423 11.9879 7.86911 11.9627 7.80837C11.9375 7.74762 11.9006 7.69245 11.854 7.646L8.854 4.646C8.80751 4.59951 8.75232 4.56264 8.69158 4.53748C8.63084 4.51232 8.56574 4.49937 8.5 4.49937C8.43426 4.49937 8.36916 4.51232 8.30842 4.53748C8.24768 4.56264 8.19249 4.59951 8.146 4.646C8.09951 4.69249 8.06264 4.74768 8.03748 4.80842C8.01232 4.86916 7.99937 4.93426 7.99937 5C7.99937 5.06574 8.01232 5.13084 8.03748 5.19158C8.06264 5.25232 8.09951 5.30751 8.146 5.354L10.293 7.5H4.5Z" fill="white"/>
</g>
<path d="M29.6895 10.3301L31.8164 3.46875H33.6035L30.5918 12H29.4023L29.6895 10.3301ZM27.7266 3.46875L29.8418 10.3301L30.1465 12H28.9453L25.9453 3.46875H27.7266ZM40.1367 10.7344V12H35.6016V10.7344H40.1367ZM36.0938 3.46875V12H34.4824V3.46875H36.0938ZM39.5449 6.99023V8.22656H35.6016V6.99023H39.5449ZM40.1191 3.46875V4.74023H35.6016V3.46875H40.1191ZM41.2559 3.46875H44.3555C45.0039 3.46875 45.5605 3.56641 46.0254 3.76172C46.4902 3.95703 46.8477 4.24609 47.0977 4.62891C47.3477 5.01172 47.4727 5.48242 47.4727 6.04102C47.4727 6.48242 47.3945 6.86523 47.2383 7.18945C47.082 7.51367 46.8613 7.78516 46.5762 8.00391C46.2949 8.22266 45.9629 8.39453 45.5801 8.51953L45.0762 8.77734H42.3398L42.3281 7.50586H44.373C44.7051 7.50586 44.9805 7.44727 45.1992 7.33008C45.418 7.21289 45.582 7.05078 45.6914 6.84375C45.8047 6.63672 45.8613 6.40039 45.8613 6.13477C45.8613 5.84961 45.8066 5.60352 45.6973 5.39648C45.5879 5.18555 45.4219 5.02344 45.1992 4.91016C44.9766 4.79688 44.6953 4.74023 44.3555 4.74023H42.8672V12H41.2559V3.46875ZM46.0723 12L44.0977 8.17969L45.8027 8.17383L47.8008 11.918V12H46.0723ZM55.2422 3.46875V12H53.6367V3.46875H55.2422ZM57.8906 3.46875V4.74023H51.0176V3.46875H57.8906ZM63.709 3.46875H65.3203V9.13477C65.3203 9.78711 65.1797 10.3359 64.8984 10.7812C64.6172 11.2227 64.2344 11.5566 63.75 11.7832C63.2656 12.0059 62.7148 12.1172 62.0977 12.1172C61.4727 12.1172 60.916 12.0059 60.4277 11.7832C59.9395 11.5566 59.5566 11.2227 59.2793 10.7812C59.002 10.3359 58.8633 9.78711 58.8633 9.13477V3.46875H60.4746V9.13477C60.4746 9.5332 60.541 9.85938 60.6738 10.1133C60.8066 10.3633 60.9941 10.5488 61.2363 10.6699C61.4785 10.791 61.7656 10.8516 62.0977 10.8516C62.4336 10.8516 62.7207 10.791 62.959 10.6699C63.2012 10.5488 63.3867 10.3633 63.5156 10.1133C63.6445 9.85938 63.709 9.5332 63.709 9.13477V3.46875ZM69.3984 12H67.5586L67.5703 10.7344H69.3984C69.8945 10.7344 70.3105 10.625 70.6465 10.4062C70.9824 10.1836 71.2363 9.86523 71.4082 9.45117C71.5801 9.0332 71.666 8.5332 71.666 7.95117V7.51172C71.666 7.0625 71.6172 6.66602 71.5195 6.32227C71.4219 5.97852 71.2773 5.68945 71.0859 5.45508C70.8984 5.2207 70.666 5.04297 70.3887 4.92188C70.1113 4.80078 69.793 4.74023 69.4336 4.74023H67.5234V3.46875H69.4336C70.0039 3.46875 70.5234 3.56445 70.9922 3.75586C71.4648 3.94727 71.873 4.22266 72.2168 4.58203C72.5645 4.9375 72.8301 5.36328 73.0137 5.85938C73.2012 6.35547 73.2949 6.91016 73.2949 7.52344V7.95117C73.2949 8.56055 73.2012 9.11523 73.0137 9.61523C72.8301 10.1113 72.5645 10.5371 72.2168 10.8926C71.873 11.248 71.4629 11.5215 70.9863 11.7129C70.5098 11.9043 69.9805 12 69.3984 12ZM68.4609 3.46875V12H66.8496V3.46875H68.4609ZM81.5742 7.51758V7.95703C81.5742 8.60156 81.4883 9.18164 81.3164 9.69727C81.1445 10.209 80.9004 10.6445 80.584 11.0039C80.2676 11.3633 79.8906 11.6387 79.4531 11.8301C79.0156 12.0215 78.5293 12.1172 77.9941 12.1172C77.4668 12.1172 76.9824 12.0215 76.541 11.8301C76.1035 11.6387 75.7246 11.3633 75.4043 11.0039C75.084 10.6445 74.8359 10.209 74.6602 9.69727C74.4844 9.18164 74.3965 8.60156 74.3965 7.95703V7.51758C74.3965 6.86914 74.4844 6.28906 74.6602 5.77734C74.8359 5.26562 75.082 4.83008 75.3984 4.4707C75.7148 4.10742 76.0918 3.83008 76.5293 3.63867C76.9707 3.44727 77.4551 3.35156 77.9824 3.35156C78.5176 3.35156 79.0039 3.44727 79.4414 3.63867C79.8789 3.83008 80.2559 4.10742 80.5723 4.4707C80.8926 4.83008 81.1387 5.26562 81.3105 5.77734C81.4863 6.28906 81.5742 6.86914 81.5742 7.51758ZM79.9453 7.95703V7.50586C79.9453 7.04102 79.9023 6.63281 79.8164 6.28125C79.7305 5.92578 79.6035 5.62695 79.4355 5.38477C79.2676 5.14258 79.0605 4.96094 78.8145 4.83984C78.5684 4.71484 78.291 4.65234 77.9824 4.65234C77.6699 4.65234 77.3926 4.71484 77.1504 4.83984C76.9121 4.96094 76.709 5.14258 76.541 5.38477C76.373 5.62695 76.2441 5.92578 76.1543 6.28125C76.0684 6.63281 76.0254 7.04102 76.0254 7.50586V7.95703C76.0254 8.41797 76.0684 8.82617 76.1543 9.18164C76.2441 9.53711 76.373 9.83789 76.541 10.084C76.7129 10.3262 76.9199 10.5098 77.1621 10.6348C77.4043 10.7598 77.6816 10.8223 77.9941 10.8223C78.3066 10.8223 78.584 10.7598 78.8262 10.6348C79.0684 10.5098 79.2715 10.3262 79.4355 10.084C79.6035 9.83789 79.7305 9.53711 79.8164 9.18164C79.9023 8.82617 79.9453 8.41797 79.9453 7.95703Z" fill="white"/>
<defs>
<clipPath id="clip0_73_1097">
<rect width="16" height="16" fill="white"/>
</clipPath>
</defs>
</svg>
