<svg width="21" height="21" viewBox="0 0 21 21" fill="none" xmlns="http://www.w3.org/2000/svg">
<path d="M15.1447 13.0586C16.3173 11.3902 16.8424 9.32172 16.6152 7.26695C16.3879 5.21218 15.4249 3.32266 13.919 1.9764C12.413 0.630151 10.475 -0.0735484 8.49284 0.00609115C6.51064 0.0857307 4.63037 0.942836 3.22821 2.40593C1.82604 3.86902 1.00539 5.83021 0.930431 7.89712C0.855472 9.96403 1.53174 11.9842 2.82392 13.5536C4.11611 15.1229 5.92893 16.1256 7.8997 16.3611C9.87047 16.5966 11.8539 16.0476 13.453 14.8237H13.4518C13.4882 14.8743 13.5269 14.9222 13.5705 14.969L18.2326 19.8302C18.4597 20.0671 18.7677 20.2003 19.0889 20.2004C19.4101 20.2005 19.7183 20.0676 19.9455 19.8308C20.1727 19.594 20.3004 19.2729 20.3005 18.9379C20.3006 18.603 20.1731 18.2817 19.9461 18.0448L15.284 13.1836C15.2407 13.1379 15.1941 13.0957 15.1447 13.0573V13.0586ZM15.4571 8.20491C15.4571 9.11689 15.2849 10.0199 14.9502 10.8625C14.6155 11.7051 14.1249 12.4706 13.5064 13.1155C12.888 13.7603 12.1538 14.2719 11.3457 14.6209C10.5377 14.9699 9.67161 15.1495 8.79699 15.1495C7.92236 15.1495 7.0563 14.9699 6.24825 14.6209C5.44021 14.2719 4.706 13.7603 4.08754 13.1155C3.46909 12.4706 2.97851 11.7051 2.6438 10.8625C2.3091 10.0199 2.13683 9.11689 2.13683 8.20491C2.13683 6.36309 2.83852 4.5967 4.08754 3.29434C5.33657 1.99198 7.0306 1.26031 8.79699 1.26031C10.5634 1.26031 12.2574 1.99198 13.5064 3.29434C14.7554 4.5967 15.4571 6.36309 15.4571 8.20491Z" fill="white" fill-opacity="0.5"/>
</svg>
