<svg width="900" height="900" viewBox="0 0 900 900" fill="none" xmlns="http://www.w3.org/2000/svg">
<circle cx="450" cy="450" r="450" fill="url(#paint0_linear_238_530)"/>
<circle cx="450" cy="450" r="425" fill="#0D0D12"/>
<path d="M119.663 466H188.853C191.273 466 193.693 465.67 196.113 464.79C198.533 463.91 200.733 462.7 202.823 461.16C204.913 459.62 206.783 457.86 208.323 455.66C209.863 453.46 211.073 451.04 211.733 448.29L214.043 439.27C214.043 438.94 214.153 438.61 214.153 438.17C214.153 437.84 214.263 437.4 214.263 436.96C214.263 435.75 214.043 434.43 213.603 433.11C213.163 431.79 212.503 430.8 211.623 429.92C212.283 429.48 213.053 428.93 213.823 428.16C214.593 427.39 215.363 426.51 216.023 425.63C216.683 424.75 217.233 423.87 217.673 422.99C218.113 422.11 218.443 421.23 218.663 420.57L220.863 411.55C221.523 408.91 221.633 406.49 221.193 404.29C220.753 402.09 219.873 400.22 218.553 398.68C217.233 397.14 215.473 396.04 213.493 395.16C211.513 394.28 209.313 393.84 206.893 393.84H137.703L119.663 466ZM146.503 444.99L147.603 440.48H190.503C191.383 440.81 191.823 441.58 191.603 442.68C191.383 443.12 191.163 443.67 190.833 444.11C190.393 444.55 189.953 444.88 189.293 444.99H146.503ZM196.883 414.85C197.873 415.18 198.203 415.95 197.983 417.05C197.543 418.37 196.773 419.14 195.673 419.36H152.883L153.983 414.85H196.883ZM299.969 419.47H248.379L249.589 414.85H313.499L318.779 393.84H233.309L215.269 466H300.739L306.019 444.99H242.109L243.209 440.37H294.799L299.969 419.47ZM354.048 414.85H321.378L326.658 393.84H413.448L408.168 414.85H375.498L362.738 466H341.288L354.048 414.85Z" fill="white"/>
<path d="M403.364 466H472.554C474.974 466 477.284 465.67 479.484 464.79C481.684 463.91 483.664 462.7 485.424 461.16C487.074 459.62 488.394 457.86 489.494 455.66C490.484 453.46 491.034 451.04 491.034 448.29V439.27C491.034 438.61 490.924 437.84 490.704 436.96C490.484 436.08 490.154 435.2 489.824 434.32C489.384 433.44 488.944 432.67 488.284 431.9C487.624 431.13 486.964 430.47 486.304 429.92C486.964 429.48 487.514 428.93 488.174 428.16C488.724 427.39 489.164 426.51 489.604 425.63C490.044 424.75 490.374 423.87 490.594 422.99C490.814 422.11 491.034 421.23 491.034 420.57V419.47H403.364V466ZM491.034 411.55C491.034 408.91 490.484 406.49 489.494 404.29C488.394 402.09 487.074 400.22 485.424 398.68C483.664 397.14 481.684 396.04 479.484 395.16C477.284 394.28 474.974 393.84 472.554 393.84H403.364V414.85H491.034V411.55ZM424.924 444.99V440.48H467.824C468.924 440.92 469.474 441.58 469.474 442.68C469.474 443.12 469.254 443.67 469.034 444.11C468.814 444.55 468.374 444.88 467.714 444.99H424.924ZM574.62 466H600.36L572.53 419.47H522.37L494.54 466H520.28L525.89 456.65H568.9L574.62 466ZM547.45 393.84C545.69 393.84 543.6 394.17 541.4 394.61C539.09 395.16 537 396.37 535.02 398.35L525.12 414.85H569.78L559.88 398.35C557.9 396.37 555.7 395.16 553.5 394.61C551.19 394.17 549.21 393.84 547.45 393.84ZM547.45 420.24L556.91 436.19H537.88L547.45 420.24ZM628.704 444.88V419.47H607.144V466H689.754V444.88H628.704ZM607.144 414.85H628.704V393.84H607.144V414.85ZM719.26 444.88V419.47H697.7V466H780.31V444.88H719.26ZM697.7 414.85H719.26V393.84H697.7V414.85Z" fill="#7DC120"/>
<path d="M342.107 507.516H340.85C339.419 507.516 338.407 507.593 337.814 507.748C337.222 507.903 336.712 508.163 336.283 508.527C335.882 508.874 335.6 509.343 335.436 509.936C335.271 510.519 335.189 511.526 335.189 512.957V518.727C335.189 520.148 335.271 521.151 335.436 521.734C335.6 522.309 335.882 522.769 336.283 523.115C336.712 523.48 337.222 523.74 337.814 523.895C338.407 524.049 339.419 524.127 340.85 524.127H342.107C343.538 524.127 344.555 524.049 345.156 523.895C345.758 523.74 346.273 523.48 346.701 523.115C347.093 522.778 347.367 522.327 347.521 521.762C347.686 521.197 347.768 520.185 347.768 518.727V512.93C347.768 511.499 347.686 510.492 347.521 509.908C347.357 509.316 347.075 508.846 346.674 508.5C346.255 508.145 345.749 507.894 345.156 507.748C344.564 507.593 343.548 507.516 342.107 507.516ZM332.865 512.369C332.865 509.771 333.403 507.962 334.479 506.941C335.554 505.911 337.464 505.396 340.207 505.396H342.777C345.548 505.396 347.462 505.902 348.52 506.914C349.586 507.926 350.119 509.744 350.119 512.369V519.273C350.119 521.88 349.577 523.694 348.492 524.715C347.417 525.736 345.512 526.246 342.777 526.246H340.207C337.464 526.246 335.554 525.736 334.479 524.715C333.403 523.694 332.865 521.88 332.865 519.273V512.369ZM368.371 526V505.643H371.844L382.877 523.812V505.643H385.119V526H381.646L370.613 507.803V526H368.371ZM404.082 526V505.643H418.369V507.803H406.324V514.461H418.027V516.539H406.324V523.867H418.369V526H404.082ZM458.893 519.369H461.162V519.752C461.162 520.964 461.253 521.857 461.436 522.432C461.618 523.006 461.919 523.411 462.338 523.648C462.666 523.831 463.172 523.963 463.855 524.045C464.539 524.118 465.947 524.154 468.08 524.154C469.238 524.154 470.135 524.081 470.773 523.936C471.411 523.781 471.885 523.535 472.195 523.197C472.368 523.015 472.496 522.705 472.578 522.268C472.66 521.83 472.701 521.238 472.701 520.49C472.701 518.977 472.546 518.029 472.236 517.646C471.936 517.255 471.334 517.022 470.432 516.949L464.156 516.457C462.279 516.311 460.98 515.842 460.26 515.049C459.54 514.256 459.18 512.921 459.18 511.043C459.18 509.858 459.298 508.906 459.535 508.186C459.772 507.465 460.155 506.868 460.684 506.395C461.094 506.03 461.668 505.775 462.406 505.629C463.145 505.474 464.448 505.396 466.316 505.396H467.041C469.128 505.396 470.596 505.497 471.443 505.697C472.3 505.898 473.016 506.244 473.59 506.736C473.982 507.064 474.269 507.534 474.451 508.145C474.643 508.746 474.738 509.498 474.738 510.4C474.738 510.665 474.734 510.87 474.725 511.016C474.725 511.152 474.72 511.275 474.711 511.385H472.441V510.879C472.441 510.132 472.396 509.562 472.305 509.17C472.223 508.769 472.086 508.473 471.895 508.281C471.612 507.999 471.106 507.803 470.377 507.693C469.657 507.575 468.285 507.516 466.262 507.516C464.165 507.516 462.848 507.753 462.311 508.227C461.773 508.701 461.504 509.648 461.504 511.07C461.504 512.237 461.677 513.044 462.023 513.49C462.379 513.928 463.058 514.188 464.061 514.27L470.459 514.803C472.136 514.949 473.312 515.413 473.986 516.197C474.661 516.972 474.998 518.271 474.998 520.094C474.998 521.424 474.911 522.427 474.738 523.102C474.565 523.767 474.278 524.323 473.877 524.77C473.385 525.326 472.719 525.717 471.881 525.945C471.051 526.164 469.534 526.273 467.328 526.273H466.316C464.439 526.273 463.108 526.178 462.324 525.986C461.549 525.795 460.902 525.462 460.383 524.988C459.872 524.551 459.494 523.958 459.248 523.211C459.011 522.464 458.893 521.516 458.893 520.367V519.369ZM502.014 507.516H500.756C499.325 507.516 498.313 507.593 497.721 507.748C497.128 507.903 496.618 508.163 496.189 508.527C495.788 508.874 495.506 509.343 495.342 509.936C495.178 510.519 495.096 511.526 495.096 512.957V518.727C495.096 520.148 495.178 521.151 495.342 521.734C495.506 522.309 495.788 522.769 496.189 523.115C496.618 523.48 497.128 523.74 497.721 523.895C498.313 524.049 499.325 524.127 500.756 524.127H502.014C503.445 524.127 504.461 524.049 505.062 523.895C505.664 523.74 506.179 523.48 506.607 523.115C506.999 522.778 507.273 522.327 507.428 521.762C507.592 521.197 507.674 520.185 507.674 518.727V512.93C507.674 511.499 507.592 510.492 507.428 509.908C507.264 509.316 506.981 508.846 506.58 508.5C506.161 508.145 505.655 507.894 505.062 507.748C504.47 507.593 503.454 507.516 502.014 507.516ZM492.771 512.369C492.771 509.771 493.309 507.962 494.385 506.941C495.46 505.911 497.37 505.396 500.113 505.396H502.684C505.454 505.396 507.368 505.902 508.426 506.914C509.492 507.926 510.025 509.744 510.025 512.369V519.273C510.025 521.88 509.483 523.694 508.398 524.715C507.323 525.736 505.418 526.246 502.684 526.246H500.113C497.37 526.246 495.46 525.736 494.385 524.715C493.309 523.694 492.771 521.88 492.771 519.273V512.369ZM528.277 526V505.643H540.992V507.803H530.52V514.461H540.678V516.539H530.52V526H528.277ZM553.01 507.803V505.643H568.254V507.803H561.746V526H559.49V507.803H553.01Z" fill="#E0823F"/>
<defs>
<linearGradient id="paint0_linear_238_530" x1="450" y1="216.5" x2="-5.28806e-05" y2="619" gradientUnits="userSpaceOnUse">
<stop stop-color="#7DC120"/>
<stop offset="1" stop-color="#40660C"/>
</linearGradient>
</defs>
</svg>
